<svg width="280" height="100" viewBox="0 0 280 100" fill="none" xmlns="http://www.w3.org/2000/svg">
<path d="M46.36 52.6C46.8133 52.5467 47.2 52.68 47.52 53C47.8667 53.32 48.04 53.7067 48.04 54.16C48.04 54.6133 47.8667 54.9867 47.52 55.28C47.2 55.6 46.8133 55.7467 46.36 55.72C45.5867 55.64 44.9067 55.5733 44.32 55.52C43.76 55.4933 43.2133 55.48 42.68 55.48C42.1733 55.48 41.6267 55.4933 41.04 55.52C40.4533 55.5733 39.7733 55.64 39 55.72C38.5467 55.7467 38.16 55.6 37.84 55.28C37.52 54.9867 37.36 54.6133 37.36 54.16C37.36 53.7067 37.52 53.32 37.84 53C38.16 52.68 38.5467 52.5467 39 52.6C39.3467 52.6267 39.7067 52.6533 40.08 52.68C40.4533 52.7067 40.8267 52.7467 41.2 52.8C41.44 52.8 41.56 52.68 41.56 52.44V30.88C41.56 30.6933 41.5067 30.6 41.4 30.6C41.2933 30.5733 41.2133 30.64 41.16 30.8L32.48 50.88C32.32 51.2267 32.0667 51.52 31.72 51.76C31.4 52 31.04 52.12 30.64 52.12C30.2667 52.12 29.9067 52 29.56 51.76C29.2133 51.52 28.9733 51.2267 28.84 50.88L20.76 30.64C20.7333 30.48 20.6667 30.4 20.56 30.4C20.4267 30.4 20.36 30.5067 20.36 30.72V52.44C20.36 52.68 20.48 52.8 20.72 52.8C21.0933 52.7467 21.4667 52.7067 21.84 52.68C22.2133 52.6533 22.5733 52.6267 22.92 52.6C23.3733 52.5467 23.76 52.68 24.08 53C24.4 53.32 24.56 53.7067 24.56 54.16C24.56 54.6133 24.4 54.9867 24.08 55.28C23.76 55.6 23.3733 55.7467 22.92 55.72C22.1467 55.64 21.4667 55.5733 20.88 55.52C20.32 55.4933 19.7733 55.48 19.24 55.48C18.7067 55.48 18.1467 55.4933 17.56 55.52C17 55.5733 16.3333 55.64 15.56 55.72C15.1067 55.7467 14.7067 55.6 14.36 55.28C14.04 54.9867 13.88 54.6133 13.88 54.16C13.88 53.7067 14.04 53.32 14.36 53C14.7067 52.68 15.1067 52.5467 15.56 52.6L16.88 52.72H16.96C17.1467 52.72 17.24 52.6133 17.24 52.4V29.12C17.24 28.8533 17.12 28.7467 16.88 28.8C16.64 28.8 16.4 28.8133 16.16 28.84C15.9467 28.8667 15.72 28.88 15.48 28.88C15.0533 28.88 14.6933 28.7333 14.4 28.44C14.1067 28.12 13.96 27.7467 13.96 27.32C13.96 26.8667 14.1333 26.4933 14.48 26.2C14.8267 25.88 15.2267 25.7467 15.68 25.8C16.56 25.9067 17.2933 25.9867 17.88 26.04C18.4667 26.0933 19.08 26.12 19.72 26.12C20.4133 26.12 21.0533 26.32 21.64 26.72C22.2267 27.12 22.6533 27.6533 22.92 28.32L30.48 47.56C30.56 47.72 30.64 47.8 30.72 47.8C30.8533 47.8 30.9333 47.72 30.96 47.56L39.08 28.28C39.3467 27.64 39.7733 27.12 40.36 26.72C40.9733 26.32 41.6267 26.12 42.32 26.12C42.9867 26.12 43.6 26.0933 44.16 26.04C44.72 25.9867 45.4133 25.9067 46.24 25.8C46.6933 25.7467 47.0933 25.88 47.44 26.2C47.7867 26.52 47.96 26.9067 47.96 27.36C47.96 27.8133 47.7867 28.2 47.44 28.52C47.0933 28.8133 46.6933 28.9333 46.24 28.88L45.04 28.76H44.96C44.7733 28.76 44.68 28.8667 44.68 29.08V52.4C44.68 52.6667 44.8133 52.7733 45.08 52.72L46.36 52.6ZM74.8031 25.88C75.2565 25.8267 75.6431 25.96 75.9631 26.28C76.2831 26.6 76.4431 26.9867 76.4431 27.44C76.4431 27.8667 76.2965 28.2267 76.0031 28.52C75.7365 28.8133 75.3765 28.96 74.9231 28.96C74.7098 28.96 74.4698 28.9467 74.2031 28.92C73.9365 28.8933 73.6698 28.8667 73.4031 28.84H73.2831C73.1231 28.84 73.0031 28.92 72.9231 29.08L65.4431 42.88C65.3631 42.9867 65.3231 43.1333 65.3231 43.32V52.32C65.3231 52.5333 65.4165 52.64 65.6031 52.64C65.9498 52.64 66.2965 52.6267 66.6431 52.6C67.0165 52.5467 67.3765 52.5067 67.7231 52.48C68.1765 52.4267 68.5631 52.56 68.8831 52.88C69.2031 53.2 69.3631 53.5867 69.3631 54.04C69.3631 54.4933 69.2031 54.8667 68.8831 55.16C68.5631 55.48 68.1765 55.6267 67.7231 55.6C66.9498 55.52 66.2298 55.4533 65.5631 55.4C64.9231 55.3733 64.2965 55.36 63.6831 55.36C62.6431 55.36 61.4031 55.44 59.9631 55.6C59.5098 55.6267 59.1098 55.48 58.7631 55.16C58.4431 54.8667 58.2831 54.4933 58.2831 54.04C58.2831 53.5867 58.4431 53.2 58.7631 52.88C59.1098 52.56 59.5098 52.4267 59.9631 52.48C60.2565 52.5067 60.5765 52.5333 60.9231 52.56C61.2965 52.5867 61.6565 52.6133 62.0031 52.64H62.0831C62.2698 52.64 62.3631 52.5333 62.3631 52.32V43.6C62.3631 43.4133 62.3231 43.2667 62.2431 43.16L54.7231 29.08C54.6431 28.92 54.5231 28.84 54.3631 28.84C54.0698 28.84 53.7898 28.8667 53.5231 28.92C53.2565 28.9467 52.9765 28.96 52.6831 28.96C52.2565 28.96 51.8965 28.8133 51.6031 28.52C51.3098 28.2267 51.1631 27.8667 51.1631 27.44C51.1631 26.9867 51.3231 26.6 51.6431 26.28C51.9631 25.96 52.3498 25.8267 52.8031 25.88C53.5765 25.96 54.2431 26.0267 54.8031 26.08C55.3631 26.1067 55.8831 26.12 56.3631 26.12C56.8965 26.12 57.4565 26.1067 58.0431 26.08C58.6298 26.0267 59.3365 25.96 60.1631 25.88C60.6165 25.8267 61.0031 25.96 61.3231 26.28C61.6698 26.6 61.8431 26.9867 61.8431 27.44C61.8431 27.8667 61.6965 28.2267 61.4031 28.52C61.1098 28.8133 60.7365 28.96 60.2831 28.96C59.9631 28.96 59.6298 28.9467 59.2831 28.92C58.9631 28.8667 58.6298 28.8267 58.2831 28.8H58.2031C58.0965 28.8 58.0165 28.84 57.9631 28.92C57.9365 29 57.9498 29.0933 58.0031 29.2L63.6031 40.04C63.6565 40.1733 63.7365 40.24 63.8431 40.24C63.9498 40.24 64.0298 40.1733 64.0831 40.04L69.6831 29.2C69.7098 29.1467 69.7231 29.08 69.7231 29C69.7231 28.8667 69.6431 28.8 69.4831 28.8C69.1098 28.8 68.7365 28.8267 68.3631 28.88C68.0165 28.9333 67.6698 28.96 67.3231 28.96C66.8965 28.96 66.5231 28.8133 66.2031 28.52C65.9098 28.2267 65.7631 27.8667 65.7631 27.44C65.7631 26.9867 65.9231 26.6 66.2431 26.28C66.5898 25.96 66.9898 25.8267 67.4431 25.88C68.2165 25.96 68.8698 26.0267 69.4031 26.08C69.9631 26.1067 70.4965 26.12 71.0031 26.12C71.5365 26.12 72.0965 26.1067 72.6831 26.08C73.2698 26.0267 73.9765 25.96 74.8031 25.88ZM94.7106 26.12H102.031C105.444 26.12 108.111 26.8933 110.031 28.44C111.951 29.96 112.911 32.1067 112.911 34.88C112.911 36.9067 112.431 38.5733 111.471 39.88C110.511 41.16 109.217 42.1067 107.591 42.72C105.964 43.3333 104.137 43.64 102.111 43.64H96.4306C96.1906 43.64 96.0706 43.76 96.0706 44V52.44C96.0706 52.68 96.1906 52.8 96.4306 52.8C96.804 52.7467 97.164 52.7067 97.5106 52.68C97.884 52.6533 98.244 52.6267 98.5906 52.6C99.044 52.5467 99.4306 52.68 99.7506 53C100.071 53.32 100.231 53.7067 100.231 54.16C100.231 54.5867 100.071 54.96 99.7506 55.28C99.4306 55.6 99.044 55.7333 98.5906 55.68C97.7906 55.6267 97.0973 55.5733 96.5106 55.52C95.924 55.4933 95.364 55.48 94.8306 55.48C94.2973 55.48 93.7506 55.4933 93.1906 55.52C92.6306 55.5733 91.9773 55.6267 91.2306 55.68C90.7773 55.7333 90.3773 55.6 90.0306 55.28C89.7106 54.96 89.5506 54.5867 89.5506 54.16C89.5506 53.7067 89.7106 53.32 90.0306 53C90.3773 52.68 90.7773 52.5467 91.2306 52.6C91.6306 52.68 92.084 52.72 92.5906 52.72H92.6706C92.8573 52.72 92.9506 52.6133 92.9506 52.4V29.2C92.9506 28.9867 92.8573 28.88 92.6706 28.88C92.4306 28.88 92.204 28.8933 91.9906 28.92C91.7773 28.9467 91.564 28.9867 91.3506 29.04C90.8706 29.0933 90.444 28.96 90.0706 28.64C89.724 28.32 89.5506 27.92 89.5506 27.44C89.5506 26.9333 89.724 26.52 90.0706 26.2C90.444 25.88 90.8706 25.7467 91.3506 25.8C91.884 25.88 92.444 25.96 93.0306 26.04C93.6173 26.0933 94.1773 26.12 94.7106 26.12ZM96.0706 40.24C96.0706 40.48 96.1906 40.6 96.4306 40.6H102.471C104.817 40.6 106.644 40.16 107.951 39.28C109.284 38.3733 109.951 36.9067 109.951 34.88C109.951 33.4133 109.604 32.2667 108.911 31.44C108.244 30.5867 107.337 29.9867 106.191 29.64C105.071 29.2933 103.831 29.12 102.471 29.12H96.4306C96.1906 29.12 96.0706 29.24 96.0706 29.48V40.24ZM131.097 25.76C133.071 25.76 134.924 26.1467 136.657 26.92C138.391 27.6933 139.911 28.7733 141.217 30.16C142.524 31.52 143.551 33.1067 144.297 34.92C145.044 36.7333 145.417 38.6667 145.417 40.72C145.417 42.8 145.044 44.7467 144.297 46.56C143.551 48.3733 142.524 49.9733 141.217 51.36C139.911 52.72 138.391 53.7867 136.657 54.56C134.924 55.3333 133.071 55.72 131.097 55.72C129.124 55.72 127.271 55.3333 125.537 54.56C123.804 53.7867 122.284 52.72 120.977 51.36C119.671 49.9733 118.644 48.3733 117.897 46.56C117.151 44.7467 116.777 42.8 116.777 40.72C116.777 38.6667 117.151 36.7333 117.897 34.92C118.644 33.1067 119.671 31.52 120.977 30.16C122.284 28.7733 123.804 27.6933 125.537 26.92C127.271 26.1467 129.124 25.76 131.097 25.76ZM131.097 52.56C133.204 52.56 135.084 52.0667 136.737 51.08C138.417 50.0667 139.751 48.6667 140.737 46.88C141.724 45.0933 142.217 43.04 142.217 40.72C142.217 38.4267 141.724 36.4 140.737 34.64C139.777 32.8533 138.457 31.4533 136.777 30.44C135.097 29.4267 133.204 28.92 131.097 28.92C128.937 28.92 127.017 29.44 125.337 30.48C123.657 31.4933 122.337 32.8933 121.377 34.68C120.417 36.4667 119.937 38.48 119.937 40.72C119.937 42.9867 120.431 45.0133 121.417 46.8C122.404 48.5867 123.737 50 125.417 51.04C127.097 52.0533 128.991 52.56 131.097 52.56ZM175.466 47.36C175.893 47.7333 176.106 48.2 176.106 48.76C176.106 49.1333 176.013 49.4533 175.826 49.72C174.519 51.5333 172.866 52.9867 170.866 54.08C168.866 55.1733 166.693 55.72 164.346 55.72C162.373 55.72 160.519 55.3333 158.786 54.56C157.053 53.76 155.533 52.68 154.226 51.32C152.919 49.9333 151.893 48.3333 151.146 46.52C150.399 44.7067 150.026 42.7733 150.026 40.72C150.026 38.64 150.399 36.7067 151.146 34.92C151.893 33.1067 152.919 31.52 154.226 30.16C155.533 28.7733 157.053 27.6933 158.786 26.92C160.519 26.1467 162.373 25.76 164.346 25.76C166.346 25.76 168.106 26.08 169.626 26.72C171.173 27.36 172.546 28.2533 173.746 29.4C174.279 29.9067 174.759 30.4667 175.186 31.08C175.613 31.6933 175.826 32.36 175.826 33.08C175.826 33.7467 175.586 34.3333 175.106 34.84C174.626 35.3467 174.039 35.6 173.346 35.6C172.626 35.6 172.039 35.3467 171.586 34.84C171.133 34.3333 170.906 33.76 170.906 33.12C170.906 32.6133 171.039 32.1733 171.306 31.8C171.439 31.5867 171.426 31.4133 171.266 31.28C170.413 30.3467 169.373 29.6933 168.146 29.32C166.946 28.92 165.679 28.72 164.346 28.72C162.186 28.72 160.266 29.2533 158.586 30.32C156.906 31.3867 155.573 32.8267 154.586 34.64C153.626 36.4267 153.146 38.4533 153.146 40.72C153.146 42.9867 153.639 45.0133 154.626 46.8C155.613 48.5867 156.946 50 158.626 51.04C160.333 52.0533 162.239 52.56 164.346 52.56C166.266 52.56 168.026 52.1333 169.626 51.28C171.226 50.4 172.519 49.2133 173.506 47.72C173.799 47.2933 174.186 47.08 174.666 47.08C174.986 47.08 175.253 47.1733 175.466 47.36ZM206.443 52.6C206.896 52.5467 207.283 52.68 207.603 53C207.949 53.32 208.123 53.7067 208.123 54.16C208.123 54.6133 207.949 54.9867 207.603 55.28C207.283 55.6 206.896 55.7467 206.443 55.72C205.643 55.64 204.923 55.5733 204.283 55.52C203.669 55.4933 203.069 55.48 202.483 55.48C201.896 55.48 201.309 55.4933 200.723 55.52C200.136 55.5733 199.456 55.64 198.683 55.72C198.256 55.7467 197.869 55.6 197.523 55.28C197.203 54.9867 197.043 54.6133 197.043 54.16C197.043 53.7067 197.189 53.3333 197.483 53.04C197.776 52.7467 198.136 52.6 198.562 52.6C198.803 52.6 199.069 52.6267 199.363 52.68C199.683 52.7067 199.976 52.7333 200.243 52.76H200.323C200.456 52.76 200.536 52.72 200.563 52.64C200.589 52.5333 200.563 52.4267 200.483 52.32L192.723 40.52C192.589 40.3067 192.429 40.2933 192.243 40.48L187.443 44.92C187.309 45.0533 187.243 45.2 187.243 45.36V52.44C187.243 52.68 187.363 52.8 187.603 52.8C188.029 52.7467 188.429 52.7067 188.803 52.68C189.203 52.6533 189.576 52.64 189.923 52.64C190.349 52.64 190.696 52.8 190.963 53.12C191.256 53.4133 191.403 53.76 191.403 54.16C191.403 54.6133 191.229 54.9867 190.883 55.28C190.563 55.6 190.176 55.7467 189.723 55.72C188.976 55.64 188.309 55.5733 187.723 55.52C187.136 55.4933 186.576 55.48 186.043 55.48C185.536 55.48 184.989 55.4933 184.403 55.52C183.816 55.5733 183.136 55.64 182.363 55.72C181.936 55.7467 181.549 55.6 181.202 55.28C180.883 54.9867 180.723 54.6133 180.723 54.16C180.723 53.7067 180.883 53.3333 181.202 53.04C181.549 52.72 181.936 52.5867 182.363 52.64L183.763 52.72C184.003 52.72 184.123 52.6133 184.123 52.4V29.08C184.123 28.8133 184.003 28.7067 183.763 28.76L182.403 28.88C181.949 28.9067 181.563 28.7733 181.243 28.48C180.923 28.16 180.763 27.7733 180.763 27.32C180.763 26.8667 180.923 26.48 181.243 26.16C181.563 25.84 181.949 25.7067 182.403 25.76C183.176 25.84 183.856 25.9067 184.442 25.96C185.029 25.9867 185.576 26 186.083 26C186.616 26 187.176 25.9867 187.763 25.96C188.349 25.9067 189.016 25.84 189.763 25.76C190.216 25.7067 190.603 25.84 190.923 26.16C191.269 26.48 191.443 26.8667 191.443 27.32C191.443 27.7733 191.269 28.16 190.923 28.48C190.603 28.7733 190.216 28.9067 189.763 28.88C189.416 28.8267 189.056 28.7867 188.683 28.76C188.336 28.7333 187.976 28.7067 187.603 28.68C187.363 28.68 187.243 28.8 187.243 29.04V40.48C187.243 40.64 187.283 40.7467 187.363 40.8C187.469 40.8267 187.576 40.7867 187.683 40.68L200.163 29.16C200.243 29.08 200.283 29 200.283 28.92C200.283 28.76 200.189 28.68 200.003 28.68C199.656 28.7067 199.309 28.7333 198.963 28.76C198.643 28.7867 198.336 28.8267 198.043 28.88C197.589 28.9067 197.189 28.7733 196.843 28.48C196.523 28.16 196.363 27.7733 196.363 27.32C196.363 26.8667 196.523 26.48 196.843 26.16C197.189 25.84 197.589 25.7067 198.043 25.76C198.869 25.84 199.589 25.9067 200.203 25.96C200.816 25.9867 201.416 26 202.003 26C202.589 26 203.176 25.9867 203.763 25.96C204.376 25.9067 205.056 25.84 205.803 25.76C206.256 25.7067 206.643 25.84 206.963 26.16C207.283 26.48 207.443 26.8667 207.443 27.32C207.443 27.7467 207.296 28.12 207.003 28.44C206.736 28.7333 206.376 28.88 205.923 28.88C205.816 28.88 205.696 28.88 205.563 28.88C205.456 28.8533 205.349 28.84 205.243 28.84H205.123C204.989 28.84 204.869 28.8933 204.763 29L195.043 37.92C194.856 38.0533 194.843 38.2267 195.003 38.44L204.203 52.56C204.283 52.72 204.443 52.8 204.683 52.8C204.976 52.7467 205.269 52.7067 205.563 52.68C205.883 52.6533 206.176 52.6267 206.443 52.6ZM230.803 47.88C231.257 47.88 231.657 48.0533 232.003 48.4C232.35 48.72 232.497 49.12 232.443 49.6L232.203 52.96C232.177 53.6267 231.923 54.2 231.443 54.68C230.963 55.1333 230.39 55.36 229.723 55.36H215.563C215.057 55.36 214.537 55.4 214.003 55.48C213.497 55.56 213.003 55.6267 212.523 55.68C212.017 55.76 211.577 55.6267 211.203 55.28C210.857 54.96 210.683 54.5467 210.683 54.04C210.683 53.5333 210.857 53.12 211.203 52.8C211.577 52.48 212.017 52.36 212.523 52.44L213.443 52.56H213.523C213.737 52.56 213.843 52.4533 213.843 52.24V29.24C213.843 29 213.737 28.88 213.523 28.88C213.31 28.88 213.097 28.92 212.883 29C212.697 29.0533 212.497 29.08 212.283 29.08C211.857 29.08 211.483 28.92 211.163 28.6C210.843 28.2533 210.683 27.8667 210.683 27.44C210.683 26.9333 210.857 26.52 211.203 26.2C211.577 25.8533 212.017 25.72 212.523 25.8C213.057 25.8533 213.603 25.92 214.163 26C214.75 26.08 215.297 26.12 215.803 26.12H229.723C230.39 26.12 230.963 26.36 231.443 26.84C231.923 27.2933 232.177 27.8533 232.203 28.52L232.443 31.88C232.497 32.3333 232.35 32.7333 232.003 33.08C231.683 33.4267 231.283 33.6 230.803 33.6C230.35 33.6 229.963 33.44 229.643 33.12C229.323 32.8 229.163 32.4267 229.163 32C229.163 31.6267 229.177 31.24 229.203 30.84C229.257 30.4133 229.297 29.9867 229.323 29.56V29.48C229.323 29.2933 229.217 29.2 229.003 29.2H217.323C217.083 29.2 216.963 29.32 216.963 29.56V38.28C216.963 38.52 217.083 38.64 217.323 38.64H227.363C227.79 38.64 228.15 38.7867 228.443 39.08C228.737 39.3733 228.883 39.7333 228.883 40.16C228.883 40.5867 228.737 40.9467 228.443 41.24C228.15 41.5067 227.79 41.64 227.363 41.64H217.323C217.083 41.64 216.963 41.76 216.963 42V51.92C216.963 52.16 217.083 52.28 217.323 52.28H229.003C229.27 52.28 229.377 52.16 229.323 51.92C229.297 51.4667 229.257 51.04 229.203 50.64C229.177 50.2133 229.163 49.8267 229.163 49.48C229.163 49.0267 229.323 48.6533 229.643 48.36C229.963 48.04 230.35 47.88 230.803 47.88ZM260.602 32.68C260.656 33.1333 260.509 33.5333 260.162 33.88C259.842 34.2267 259.442 34.4 258.962 34.4C258.482 34.4 258.082 34.2267 257.762 33.88C257.442 33.5333 257.296 33.1333 257.322 32.68L257.522 29.52C257.522 29.28 257.416 29.16 257.202 29.16H250.882C250.642 29.16 250.522 29.28 250.522 29.52V52.44C250.522 52.6533 250.616 52.76 250.802 52.76C251.149 52.76 251.496 52.7467 251.842 52.72C252.216 52.6667 252.562 52.6267 252.882 52.6C253.336 52.5467 253.722 52.68 254.042 53C254.362 53.32 254.522 53.7067 254.522 54.16C254.522 54.5867 254.362 54.9467 254.042 55.24C253.722 55.56 253.336 55.7067 252.882 55.68C252.109 55.6 251.496 55.5467 251.042 55.52C250.589 55.4933 250.216 55.4667 249.922 55.44C249.629 55.44 249.309 55.44 248.962 55.44C248.589 55.44 248.256 55.44 247.962 55.44C247.669 55.4667 247.309 55.4933 246.882 55.52C246.456 55.5467 245.856 55.6 245.082 55.68C244.656 55.7067 244.269 55.56 243.922 55.24C243.602 54.9467 243.442 54.5867 243.442 54.16C243.442 53.7067 243.602 53.32 243.922 53C244.269 52.68 244.656 52.5467 245.082 52.6C245.376 52.6267 245.696 52.6533 246.042 52.68C246.389 52.7067 246.736 52.7333 247.082 52.76H247.162C247.349 52.76 247.442 52.6533 247.442 52.44V29.52C247.442 29.28 247.322 29.16 247.082 29.16H240.722C240.509 29.16 240.402 29.28 240.402 29.52L240.602 32.68C240.656 33.1333 240.509 33.5333 240.162 33.88C239.842 34.2267 239.442 34.4 238.962 34.4C238.482 34.4 238.082 34.2267 237.762 33.88C237.442 33.5333 237.296 33.1333 237.322 32.68C237.376 32.0667 237.429 31.4 237.482 30.68C237.536 29.96 237.576 29.24 237.602 28.52C237.656 27.8267 237.909 27.2533 238.362 26.8C238.842 26.3467 239.416 26.12 240.082 26.12H257.882C258.549 26.12 259.109 26.36 259.562 26.84C260.042 27.2933 260.296 27.8533 260.322 28.52C260.376 29.24 260.429 29.96 260.482 30.68C260.536 31.4 260.576 32.0667 260.602 32.68Z" fill="#242424"/>
<path d="M45.66 73.56H49.32C51.0267 73.56 52.36 73.9467 53.32 74.72C54.28 75.48 54.76 76.5533 54.76 77.94C54.76 78.9533 54.52 79.7867 54.04 80.44C53.56 81.08 52.9133 81.5533 52.1 81.86C51.2867 82.1667 50.3733 82.32 49.36 82.32H46.52C46.4 82.32 46.34 82.38 46.34 82.5V86.72C46.34 86.84 46.4 86.9 46.52 86.9C46.7067 86.8733 46.8867 86.8533 47.06 86.84C47.2467 86.8267 47.4267 86.8133 47.6 86.8C47.8267 86.7733 48.02 86.84 48.18 87C48.34 87.16 48.42 87.3533 48.42 87.58C48.42 87.7933 48.34 87.98 48.18 88.14C48.02 88.3 47.8267 88.3667 47.6 88.34C47.2 88.3133 46.8533 88.2867 46.56 88.26C46.2667 88.2467 45.9867 88.24 45.72 88.24C45.4533 88.24 45.18 88.2467 44.9 88.26C44.62 88.2867 44.2933 88.3133 43.92 88.34C43.6933 88.3667 43.4933 88.3 43.32 88.14C43.16 87.98 43.08 87.7933 43.08 87.58C43.08 87.3533 43.16 87.16 43.32 87C43.4933 86.84 43.6933 86.7733 43.92 86.8C44.12 86.84 44.3467 86.86 44.6 86.86H44.64C44.7333 86.86 44.78 86.8067 44.78 86.7V75.1C44.78 74.9933 44.7333 74.94 44.64 74.94C44.52 74.94 44.4067 74.9467 44.3 74.96C44.1933 74.9733 44.0867 74.9933 43.98 75.02C43.74 75.0467 43.5267 74.98 43.34 74.82C43.1667 74.66 43.08 74.46 43.08 74.22C43.08 73.9667 43.1667 73.76 43.34 73.6C43.5267 73.44 43.74 73.3733 43.98 73.4C44.2467 73.44 44.5267 73.48 44.82 73.52C45.1133 73.5467 45.3933 73.56 45.66 73.56ZM46.34 80.62C46.34 80.74 46.4 80.8 46.52 80.8H49.54C50.7133 80.8 51.6267 80.58 52.28 80.14C52.9467 79.6867 53.28 78.9533 53.28 77.94C53.28 77.2067 53.1067 76.6333 52.76 76.22C52.4267 75.7933 51.9733 75.4933 51.4 75.32C50.84 75.1467 50.22 75.06 49.54 75.06H46.52C46.4 75.06 46.34 75.12 46.34 75.24V80.62ZM62.0133 88.36C61.2666 88.36 60.5666 88.2267 59.9133 87.96C59.2599 87.68 58.6866 87.3 58.1933 86.82C57.6999 86.3267 57.3133 85.76 57.0333 85.12C56.7533 84.48 56.6133 83.7933 56.6133 83.06C56.6133 82.3267 56.7533 81.64 57.0333 81C57.3133 80.36 57.6999 79.8 58.1933 79.32C58.6866 78.8267 59.2599 78.4467 59.9133 78.18C60.5666 77.9 61.2666 77.76 62.0133 77.76C62.7599 77.76 63.4533 77.9 64.0933 78.18C64.7466 78.4467 65.3199 78.8267 65.8133 79.32C66.3066 79.8 66.6933 80.36 66.9733 81C67.2533 81.64 67.3933 82.3267 67.3933 83.06C67.3933 83.7933 67.2533 84.48 66.9733 85.12C66.6933 85.76 66.3066 86.3267 65.8133 86.82C65.3199 87.3 64.7466 87.68 64.0933 87.96C63.4533 88.2267 62.7599 88.36 62.0133 88.36ZM62.0133 86.94C62.7733 86.94 63.4466 86.76 64.0333 86.4C64.6199 86.04 65.0799 85.5667 65.4133 84.98C65.7466 84.3933 65.9133 83.7533 65.9133 83.06C65.9133 82.3667 65.7399 81.7267 65.3933 81.14C65.0599 80.5533 64.5999 80.08 64.0133 79.72C63.4266 79.36 62.7599 79.18 62.0133 79.18C61.2399 79.18 60.5599 79.36 59.9733 79.72C59.3866 80.08 58.9266 80.5533 58.5933 81.14C58.2599 81.7267 58.0933 82.3667 58.0933 83.06C58.0933 83.7533 58.2599 84.3933 58.5933 84.98C58.9399 85.5667 59.4066 86.04 59.9933 86.4C60.5799 86.76 61.2533 86.94 62.0133 86.94ZM79.4267 86.96C79.6134 86.96 79.7734 87.0267 79.9067 87.16C80.0401 87.2933 80.1067 87.46 80.1067 87.66C80.1067 87.86 80.0334 88.0267 79.8867 88.16C79.7401 88.2933 79.5601 88.3533 79.3467 88.34C78.9334 88.3 78.6067 88.2733 78.3667 88.26C78.1267 88.2467 77.9001 88.24 77.6867 88.24C77.4467 88.24 77.2067 88.2467 76.9667 88.26C76.7401 88.2867 76.4334 88.3133 76.0467 88.34C75.8334 88.3533 75.6534 88.2933 75.5067 88.16C75.3601 88.0267 75.2867 87.86 75.2867 87.66C75.2867 87.4467 75.3601 87.2733 75.5067 87.14C75.6534 86.9933 75.8334 86.9333 76.0467 86.96H76.1667C76.2201 86.96 76.2534 86.94 76.2667 86.9C76.2934 86.86 76.2867 86.8133 76.2467 86.76L73.8067 83.18C73.7401 83.06 73.6601 83.0467 73.5667 83.14L72.4067 84.12C72.3401 84.1867 72.3067 84.26 72.3067 84.34V86.86C72.3067 86.9667 72.3534 87.02 72.4467 87.02C72.5934 87.02 72.7334 87.0133 72.8667 87C73.0134 86.9733 73.1534 86.96 73.2867 86.96C73.4734 86.96 73.6334 87.0267 73.7667 87.16C73.9001 87.2933 73.9667 87.46 73.9667 87.66C73.9667 87.86 73.8934 88.0267 73.7467 88.16C73.6001 88.2933 73.4201 88.3533 73.2067 88.34C72.7934 88.3 72.4667 88.2733 72.2267 88.26C71.9867 88.2467 71.7667 88.24 71.5667 88.24C71.4201 88.24 71.2801 88.24 71.1467 88.24C71.0267 88.2533 70.8734 88.2667 70.6867 88.28C70.5134 88.2933 70.2534 88.3133 69.9067 88.34C69.6934 88.3533 69.5134 88.2933 69.3667 88.16C69.2201 88.0267 69.1467 87.86 69.1467 87.66C69.1467 87.46 69.2134 87.2933 69.3467 87.16C69.4801 87.0267 69.6401 86.96 69.8267 86.96C69.9467 86.96 70.0734 86.9667 70.2067 86.98C70.3534 86.9933 70.4934 87.0067 70.6267 87.02H70.6667C70.7601 87.02 70.8067 86.9667 70.8067 86.86V74.76C70.8067 74.6533 70.7601 74.6 70.6667 74.6C70.5201 74.6 70.3801 74.6133 70.2467 74.64C70.1134 74.6533 69.9734 74.66 69.8267 74.66C69.6401 74.66 69.4801 74.5933 69.3467 74.46C69.2134 74.3267 69.1467 74.1667 69.1467 73.98C69.1467 73.7667 69.2201 73.5933 69.3667 73.46C69.5134 73.3133 69.6934 73.2533 69.9067 73.28C70.0934 73.2933 70.2867 73.3133 70.4867 73.34C70.7001 73.3533 70.9067 73.3667 71.1067 73.38C71.4401 73.3933 71.7201 73.5133 71.9467 73.74C72.1867 73.9667 72.3067 74.2467 72.3067 74.58V82.2C72.3067 82.2667 72.3267 82.3133 72.3667 82.34C72.4201 82.3667 72.4734 82.3533 72.5267 82.3L76.0467 79.34C76.0867 79.3 76.1067 79.26 76.1067 79.22C76.1067 79.1267 76.0534 79.0933 75.9467 79.12L75.5267 79.16C75.3134 79.1733 75.1334 79.1133 74.9867 78.98C74.8401 78.8333 74.7667 78.66 74.7667 78.46C74.7667 78.26 74.8401 78.0867 74.9867 77.94C75.1334 77.7933 75.3134 77.7333 75.5267 77.76C75.9534 77.8 76.2801 77.8333 76.5067 77.86C76.7467 77.8733 76.9667 77.88 77.1667 77.88C77.4201 77.88 77.6601 77.8733 77.8867 77.86C78.1134 77.8333 78.4267 77.8 78.8267 77.76C79.0401 77.7333 79.2201 77.7933 79.3667 77.94C79.5134 78.0867 79.5867 78.26 79.5867 78.46C79.5867 78.6467 79.5201 78.8133 79.3867 78.96C79.2534 79.0933 79.0867 79.16 78.8867 79.16C78.8334 79.16 78.7801 79.16 78.7267 79.16C78.6867 79.1467 78.6401 79.14 78.5867 79.14H78.5067C78.4401 79.14 78.3867 79.16 78.3467 79.2L74.9867 82.04C74.8934 82.1333 74.8801 82.22 74.9467 82.3L78.1267 86.92C78.1934 87 78.2667 87.04 78.3467 87.04C78.5334 87.0267 78.7134 87.0133 78.8867 87C79.0734 86.9733 79.2534 86.96 79.4267 86.96ZM88.2156 74.14L86.2556 75.84C86.1356 75.9333 86.0156 75.98 85.8956 75.98C85.7623 75.98 85.6423 75.9267 85.5356 75.82C85.429 75.7133 85.3756 75.5867 85.3756 75.44C85.3756 75.32 85.4223 75.2 85.5156 75.08L87.2556 73.12C87.4023 72.96 87.5756 72.88 87.7756 72.88C87.9623 72.88 88.129 72.9533 88.2756 73.1C88.409 73.2333 88.4756 73.3933 88.4756 73.58C88.4756 73.82 88.389 74.0067 88.2156 74.14ZM86.6556 88.34C85.6956 88.34 84.8223 88.1 84.0356 87.62C83.249 87.14 82.6223 86.5 82.1556 85.7C81.7023 84.9 81.4756 84.02 81.4756 83.06C81.4756 82.0867 81.689 81.2 82.1156 80.4C82.5556 79.6 83.149 78.96 83.8956 78.48C84.6556 78 85.509 77.76 86.4556 77.76C87.8556 77.76 88.9823 78.2 89.8356 79.08C90.689 79.9467 91.189 81.0933 91.3356 82.52C91.3756 82.8533 91.2756 83.14 91.0356 83.38C90.809 83.6067 90.529 83.72 90.1956 83.72H83.1956C83.0623 83.72 83.009 83.7867 83.0356 83.92C83.1556 84.5067 83.389 85.0267 83.7356 85.48C84.0823 85.9333 84.509 86.2867 85.0156 86.54C85.5223 86.7933 86.069 86.92 86.6556 86.92C87.1623 86.92 87.6423 86.8133 88.0956 86.6C88.5623 86.3733 88.9623 86.0733 89.2956 85.7C89.4956 85.5 89.709 85.4 89.9356 85.4C90.0823 85.4 90.2223 85.4467 90.3556 85.54C90.569 85.6867 90.6756 85.8867 90.6756 86.14C90.6756 86.3133 90.6223 86.4533 90.5156 86.56C90.0356 87.12 89.4556 87.56 88.7756 87.88C88.109 88.1867 87.4023 88.34 86.6556 88.34ZM83.0356 82.08C83.0356 82.0933 83.029 82.1067 83.0156 82.12C83.0156 82.12 83.0156 82.1267 83.0156 82.14C83.0156 82.2333 83.0756 82.28 83.1956 82.28H89.6156C89.749 82.28 89.8023 82.2133 89.7756 82.08C89.6023 81.1467 89.249 80.42 88.7156 79.9C88.1823 79.3667 87.429 79.1 86.4556 79.1C85.5223 79.1 84.7556 79.3733 84.1556 79.92C83.5556 80.4667 83.1823 81.1867 83.0356 82.08ZM110.373 86.96C110.56 86.96 110.72 87.0267 110.853 87.16C110.986 87.2933 111.053 87.46 111.053 87.66C111.053 87.86 110.98 88.0267 110.833 88.16C110.686 88.3067 110.513 88.3733 110.313 88.36C109.9 88.32 109.573 88.2867 109.333 88.26C109.093 88.2467 108.866 88.24 108.653 88.24C108.413 88.24 108.173 88.2467 107.933 88.26C107.706 88.2867 107.393 88.32 106.993 88.36C106.793 88.3733 106.62 88.3067 106.473 88.16C106.326 88.0267 106.253 87.86 106.253 87.66C106.253 87.46 106.32 87.2933 106.453 87.16C106.586 87.0267 106.746 86.96 106.933 86.96C107.053 86.96 107.18 86.9667 107.313 86.98C107.446 86.9933 107.58 87.0067 107.713 87.02H107.753C107.846 87.02 107.893 86.9667 107.893 86.86V81.64C107.893 81.0133 107.8 80.5067 107.613 80.12C107.44 79.7333 107.22 79.5 106.953 79.42C106.806 79.3667 106.613 79.34 106.373 79.34C106 79.34 105.533 79.4733 104.973 79.74C104.426 80.0067 103.766 80.54 102.993 81.34C102.926 81.4067 102.893 81.48 102.893 81.56V86.86C102.893 86.9667 102.94 87.02 103.033 87.02C103.18 87.02 103.326 87.0133 103.473 87C103.62 86.9733 103.76 86.96 103.893 86.96C104.08 86.96 104.24 87.0267 104.373 87.16C104.506 87.2933 104.573 87.46 104.573 87.66C104.573 87.86 104.5 88.0267 104.353 88.16C104.206 88.3067 104.026 88.3733 103.813 88.36C103.4 88.32 103.073 88.2867 102.833 88.26C102.593 88.2467 102.373 88.24 102.173 88.24C101.92 88.24 101.68 88.2467 101.453 88.26C101.226 88.2867 100.913 88.32 100.513 88.36C100.3 88.3733 100.12 88.3067 99.973 88.16C99.8263 88.0267 99.753 87.86 99.753 87.66C99.753 87.46 99.8196 87.2933 99.953 87.16C100.086 87.0267 100.246 86.96 100.433 86.96C100.553 86.96 100.686 86.9667 100.833 86.98C100.98 86.9933 101.12 87.0067 101.253 87.02H101.293C101.386 87.02 101.433 86.9667 101.433 86.86V81.64C101.433 80.3333 101.153 79.5867 100.593 79.4C100.526 79.3733 100.453 79.3533 100.373 79.34C100.293 79.3267 100.206 79.32 100.113 79.32C99.7396 79.32 99.2663 79.46 98.693 79.74C98.1196 80.02 97.4396 80.5667 96.653 81.38C96.5863 81.4467 96.553 81.52 96.553 81.6V86.86C96.553 86.9667 96.5996 87.02 96.693 87.02C96.8396 87.02 96.9796 87.0133 97.113 87C97.2596 86.9733 97.3996 86.96 97.533 86.96C97.7196 86.96 97.8796 87.0267 98.013 87.16C98.1463 87.2933 98.213 87.46 98.213 87.66C98.213 87.86 98.1396 88.0267 97.993 88.16C97.8463 88.3067 97.673 88.3733 97.473 88.36C97.0596 88.32 96.733 88.2867 96.493 88.26C96.253 88.2467 96.0263 88.24 95.813 88.24C95.573 88.24 95.333 88.2467 95.093 88.26C94.8663 88.2867 94.553 88.32 94.153 88.36C93.953 88.3733 93.7796 88.3067 93.633 88.16C93.4863 88.0267 93.413 87.86 93.413 87.66C93.413 87.46 93.4796 87.2933 93.613 87.16C93.7463 87.0267 93.9063 86.96 94.093 86.96C94.1996 86.96 94.3263 86.9667 94.473 86.98C94.6196 86.9933 94.7596 87.0067 94.893 87.02H94.933C95.0263 87.02 95.073 86.9667 95.073 86.86V79.3C95.073 79.1933 95.0263 79.14 94.933 79.14C94.7996 79.14 94.653 79.1467 94.493 79.16C94.3463 79.1733 94.1996 79.1933 94.053 79.22C93.8396 79.2467 93.653 79.1867 93.493 79.04C93.333 78.8933 93.253 78.7133 93.253 78.5C93.253 78.2867 93.333 78.1067 93.493 77.96C93.653 77.8133 93.8396 77.7533 94.053 77.78C94.3596 77.8333 94.6996 77.8733 95.073 77.9H95.813C96.0263 77.9 96.1996 77.9733 96.333 78.12C96.4796 78.2533 96.553 78.4267 96.553 78.64V79.4C96.553 79.48 96.573 79.5267 96.613 79.54C96.6663 79.5533 96.7196 79.5333 96.773 79.48C97.3996 78.8933 98.0063 78.46 98.593 78.18C99.193 77.9 99.7463 77.76 100.253 77.76C100.666 77.76 101.073 77.8533 101.473 78.04C101.78 78.1867 102.026 78.4 102.213 78.68C102.413 78.96 102.56 79.2667 102.653 79.6C102.693 79.76 102.773 79.78 102.893 79.66C103.56 78.9933 104.2 78.5133 104.813 78.22C105.426 77.9133 106.006 77.76 106.553 77.76C107.02 77.76 107.453 77.86 107.853 78.06C108.28 78.26 108.6 78.5733 108.813 79C109.04 79.4133 109.193 79.86 109.273 80.34C109.353 80.82 109.393 81.2533 109.393 81.64V86.86C109.393 86.9667 109.446 87.02 109.553 87.02C109.7 87.02 109.84 87.0133 109.973 87C110.106 86.9733 110.24 86.96 110.373 86.96ZM118.205 88.36C117.458 88.36 116.758 88.2267 116.105 87.96C115.451 87.68 114.878 87.3 114.385 86.82C113.891 86.3267 113.505 85.76 113.225 85.12C112.945 84.48 112.805 83.7933 112.805 83.06C112.805 82.3267 112.945 81.64 113.225 81C113.505 80.36 113.891 79.8 114.385 79.32C114.878 78.8267 115.451 78.4467 116.105 78.18C116.758 77.9 117.458 77.76 118.205 77.76C118.951 77.76 119.645 77.9 120.285 78.18C120.938 78.4467 121.511 78.8267 122.005 79.32C122.498 79.8 122.885 80.36 123.165 81C123.445 81.64 123.585 82.3267 123.585 83.06C123.585 83.7933 123.445 84.48 123.165 85.12C122.885 85.76 122.498 86.3267 122.005 86.82C121.511 87.3 120.938 87.68 120.285 87.96C119.645 88.2267 118.951 88.36 118.205 88.36ZM118.205 86.94C118.965 86.94 119.638 86.76 120.225 86.4C120.811 86.04 121.271 85.5667 121.605 84.98C121.938 84.3933 122.105 83.7533 122.105 83.06C122.105 82.3667 121.931 81.7267 121.585 81.14C121.251 80.5533 120.791 80.08 120.205 79.72C119.618 79.36 118.951 79.18 118.205 79.18C117.431 79.18 116.751 79.36 116.165 79.72C115.578 80.08 115.118 80.5533 114.785 81.14C114.451 81.7267 114.285 82.3667 114.285 83.06C114.285 83.7533 114.451 84.3933 114.785 84.98C115.131 85.5667 115.598 86.04 116.185 86.4C116.771 86.76 117.445 86.94 118.205 86.94ZM135.893 86.96C136.079 86.96 136.239 87.0267 136.373 87.16C136.506 87.2933 136.573 87.46 136.573 87.66C136.573 87.86 136.499 88.0267 136.353 88.16C136.206 88.2933 136.033 88.3533 135.833 88.34C135.419 88.3 135.093 88.2733 134.853 88.26C134.613 88.2467 134.386 88.24 134.173 88.24C133.933 88.24 133.693 88.2467 133.453 88.26C133.226 88.2867 132.913 88.3133 132.513 88.34C132.313 88.3533 132.139 88.2933 131.993 88.16C131.846 88.0267 131.773 87.86 131.773 87.66C131.773 87.46 131.839 87.2933 131.973 87.16C132.106 87.0267 132.266 86.96 132.453 86.96C132.573 86.96 132.699 86.9667 132.833 86.98C132.966 86.9933 133.099 87.0067 133.233 87.02H133.273C133.366 87.02 133.413 86.9667 133.413 86.86V81.3C133.413 80.7133 133.313 80.2467 133.113 79.9C132.926 79.54 132.559 79.36 132.013 79.36C131.559 79.36 131.026 79.4867 130.413 79.74C129.799 79.9933 129.086 80.4933 128.273 81.24C128.206 81.3067 128.173 81.3867 128.173 81.48V86.86C128.173 86.9667 128.219 87.02 128.313 87.02C128.459 87.02 128.599 87.0133 128.733 87C128.866 86.9733 128.999 86.96 129.133 86.96C129.319 86.96 129.479 87.0267 129.613 87.16C129.746 87.2933 129.813 87.46 129.813 87.66C129.813 87.86 129.739 88.0267 129.593 88.16C129.446 88.2933 129.273 88.3533 129.073 88.34C128.659 88.3 128.333 88.2733 128.093 88.26C127.853 88.2467 127.626 88.24 127.413 88.24C127.173 88.24 126.933 88.2467 126.693 88.26C126.466 88.2867 126.153 88.3133 125.753 88.34C125.553 88.3533 125.379 88.2933 125.233 88.16C125.086 88.0267 125.013 87.86 125.013 87.66C125.013 87.46 125.079 87.2933 125.213 87.16C125.346 87.0267 125.506 86.96 125.693 86.96C125.826 86.96 125.959 86.9667 126.093 86.98C126.226 86.9933 126.359 87.0067 126.493 87.02H126.533C126.626 87.02 126.673 86.9667 126.673 86.86V79.26C126.673 79.1533 126.626 79.1 126.533 79.1C126.373 79.1 126.219 79.1133 126.073 79.14C125.939 79.1533 125.799 79.16 125.653 79.16C125.466 79.16 125.306 79.0933 125.173 78.96C125.039 78.8133 124.973 78.6467 124.973 78.46C124.973 78.26 125.046 78.0867 125.193 77.94C125.339 77.7933 125.513 77.7333 125.713 77.76C125.899 77.7733 126.099 77.7933 126.313 77.82C126.539 77.8333 126.759 77.8467 126.973 77.86C127.306 77.8733 127.586 78 127.813 78.24C128.053 78.4667 128.173 78.7467 128.173 79.08V79.56C128.173 79.64 128.193 79.6867 128.233 79.7C128.286 79.7133 128.339 79.6933 128.393 79.64C129.139 78.9333 129.826 78.4467 130.453 78.18C131.093 77.9 131.693 77.76 132.253 77.76C132.946 77.76 133.486 77.9267 133.873 78.26C134.259 78.58 134.533 79.0133 134.693 79.56C134.853 80.0933 134.933 80.68 134.933 81.32V86.86C134.933 86.9667 134.986 87.02 135.093 87.02C135.239 87.02 135.373 87.0133 135.493 87C135.626 86.9733 135.759 86.96 135.893 86.96ZM152.833 84.14C153.073 84.14 153.273 84.2267 153.433 84.4C153.607 84.5733 153.687 84.7733 153.673 85C153.66 85.2933 153.64 85.6133 153.613 85.96C153.587 86.2933 153.56 86.6333 153.533 86.98C153.52 87.3133 153.393 87.6 153.153 87.84C152.913 88.0667 152.627 88.18 152.293 88.18H146.213C145.88 88.1933 145.547 88.2133 145.213 88.24C144.88 88.28 144.567 88.3133 144.273 88.34C144.02 88.3667 143.8 88.2933 143.613 88.12C143.44 87.96 143.353 87.7533 143.353 87.5C143.353 87.2467 143.447 87.0333 143.633 86.86C143.82 86.6867 144.033 86.6133 144.273 86.64L144.873 86.7H144.913C145.007 86.7 145.053 86.6467 145.053 86.54V75.04C145.053 74.9067 144.993 74.8533 144.873 74.88L144.193 74.94C143.967 74.9533 143.767 74.8867 143.593 74.74C143.433 74.58 143.353 74.3867 143.353 74.16C143.353 73.9333 143.433 73.74 143.593 73.58C143.767 73.42 143.967 73.3533 144.193 73.38C144.58 73.42 144.913 73.4533 145.193 73.48C145.487 73.4933 145.767 73.5 146.033 73.5C146.3 73.5 146.58 73.4933 146.873 73.48C147.167 73.4533 147.5 73.42 147.873 73.38C148.1 73.3533 148.293 73.42 148.453 73.58C148.613 73.74 148.693 73.9333 148.693 74.16C148.693 74.3867 148.613 74.58 148.453 74.74C148.293 74.8867 148.1 74.9533 147.873 74.94C147.7 74.9133 147.52 74.8933 147.333 74.88C147.16 74.8667 146.98 74.8533 146.793 74.84C146.673 74.84 146.613 74.9 146.613 75.02V86.46C146.613 86.58 146.673 86.64 146.793 86.64H151.953C152.087 86.64 152.14 86.58 152.113 86.46C152.1 86.1933 152.08 85.9267 152.053 85.66C152.027 85.3933 152.013 85.1533 152.013 84.94C152.013 84.7133 152.093 84.5267 152.253 84.38C152.413 84.22 152.607 84.14 152.833 84.14ZM160.554 86.8C160.781 86.7733 160.974 86.84 161.134 87C161.307 87.16 161.394 87.3533 161.394 87.58C161.394 87.8067 161.307 87.9933 161.134 88.14C160.974 88.3 160.781 88.3733 160.554 88.36C160.181 88.32 159.827 88.2867 159.494 88.26C159.174 88.2467 158.861 88.24 158.554 88.24C158.261 88.24 157.961 88.2467 157.654 88.26C157.361 88.2867 157.034 88.32 156.674 88.36C156.447 88.3733 156.247 88.3 156.074 88.14C155.914 87.9933 155.834 87.8067 155.834 87.58C155.834 87.3533 155.914 87.16 156.074 87C156.247 86.84 156.447 86.7733 156.674 86.8C156.821 86.8133 156.981 86.8267 157.154 86.84C157.327 86.8533 157.501 86.8667 157.674 86.88H157.714C157.807 86.88 157.854 86.8267 157.854 86.72V75.02C157.854 74.9133 157.807 74.86 157.714 74.86C157.541 74.86 157.361 74.8667 157.174 74.88C157.001 74.8933 156.834 74.9133 156.674 74.94C156.447 74.9533 156.247 74.8867 156.074 74.74C155.914 74.58 155.834 74.3867 155.834 74.16C155.834 73.9333 155.914 73.74 156.074 73.58C156.247 73.42 156.447 73.3533 156.674 73.38C157.061 73.42 157.414 73.4533 157.734 73.48C158.054 73.4933 158.367 73.5 158.674 73.5C158.967 73.5 159.261 73.4933 159.554 73.48C159.861 73.4533 160.194 73.42 160.554 73.38C160.781 73.3533 160.974 73.42 161.134 73.58C161.307 73.74 161.394 73.9333 161.394 74.16C161.394 74.3867 161.307 74.58 161.134 74.74C160.974 74.8867 160.781 74.9533 160.554 74.94C160.407 74.9133 160.247 74.9 160.074 74.9C159.914 74.8867 159.754 74.8733 159.594 74.86H159.554C159.461 74.86 159.414 74.9133 159.414 75.02V86.72C159.414 86.8267 159.467 86.88 159.574 86.88C159.734 86.88 159.894 86.8733 160.054 86.86C160.227 86.8333 160.394 86.8133 160.554 86.8ZM172.129 80.28C172.075 80.3067 172.049 80.3467 172.049 80.4C172.049 80.44 172.082 80.4733 172.149 80.5C172.922 80.8733 173.515 81.3733 173.929 82C174.342 82.6133 174.549 83.3 174.549 84.06C174.549 84.7667 174.409 85.38 174.129 85.9C173.849 86.42 173.475 86.8467 173.009 87.18C172.555 87.5133 172.049 87.7667 171.489 87.94C170.942 88.1 170.389 88.18 169.829 88.18H166.109C165.842 88.18 165.562 88.2 165.269 88.24C164.989 88.28 164.715 88.3133 164.449 88.34C164.209 88.38 163.995 88.3133 163.809 88.14C163.635 87.98 163.549 87.7733 163.549 87.52C163.549 87.28 163.635 87.08 163.809 86.92C163.995 86.7467 164.209 86.68 164.449 86.72C164.595 86.7333 164.742 86.7533 164.889 86.78C165.035 86.7933 165.175 86.8067 165.309 86.82H165.349C165.442 86.82 165.489 86.7667 165.489 86.66V75.08C165.489 74.9733 165.442 74.92 165.349 74.92C165.189 74.92 165.035 74.94 164.889 74.98C164.742 75.02 164.595 75.04 164.449 75.04C164.235 75.04 164.049 74.96 163.889 74.8C163.742 74.6267 163.669 74.4333 163.669 74.22C163.669 73.9667 163.755 73.76 163.929 73.6C164.115 73.4267 164.329 73.36 164.569 73.4C164.769 73.4267 164.975 73.4533 165.189 73.48C165.415 73.5067 165.635 73.5267 165.849 73.54L169.309 73.56C170.175 73.56 170.902 73.68 171.489 73.92C172.089 74.16 172.569 74.4733 172.929 74.86C173.289 75.2333 173.549 75.64 173.709 76.08C173.882 76.5067 173.969 76.92 173.969 77.32C173.969 77.9867 173.795 78.5667 173.449 79.06C173.115 79.5533 172.675 79.96 172.129 80.28ZM172.449 77.32C172.449 76.7333 172.202 76.2133 171.709 75.76C171.215 75.3067 170.415 75.08 169.309 75.08H167.229C167.109 75.08 167.049 75.14 167.049 75.26V79.68C167.049 79.8 167.109 79.86 167.229 79.86H168.949C170.242 79.7933 171.149 79.54 171.669 79.1C172.189 78.6467 172.449 78.0533 172.449 77.32ZM167.229 81.32C167.109 81.32 167.049 81.38 167.049 81.5V86.48C167.049 86.6 167.109 86.66 167.229 86.66H169.829C170.629 86.66 171.262 86.5333 171.729 86.28C172.195 86.0267 172.529 85.7 172.729 85.3C172.942 84.9 173.049 84.4867 173.049 84.06C173.049 83.74 172.989 83.42 172.869 83.1C172.762 82.7667 172.555 82.4667 172.249 82.2C171.942 81.9333 171.502 81.72 170.929 81.56C170.369 81.4 169.635 81.32 168.729 81.32H167.229ZM189.273 86.8C189.499 86.7733 189.693 86.84 189.853 87C190.026 87.16 190.113 87.3533 190.113 87.58C190.113 87.8067 190.026 87.9933 189.853 88.14C189.693 88.3 189.499 88.3733 189.273 88.36C189.219 88.3467 188.999 88.32 188.613 88.28C188.239 88.24 187.879 88.22 187.533 88.22C187.013 88.22 186.606 88 186.313 87.56L182.953 82.44C182.913 82.36 182.839 82.32 182.733 82.32H180.153C180.033 82.32 179.973 82.38 179.973 82.5V86.72C179.973 86.84 180.033 86.9 180.153 86.9C180.339 86.8733 180.519 86.8533 180.693 86.84C180.879 86.8267 181.059 86.8133 181.233 86.8C181.459 86.7733 181.653 86.84 181.813 87C181.973 87.16 182.053 87.3533 182.053 87.58C182.053 87.8067 181.973 87.9933 181.813 88.14C181.653 88.3 181.459 88.3733 181.233 88.36C180.846 88.32 180.506 88.2867 180.213 88.26C179.933 88.2467 179.659 88.24 179.393 88.24C179.126 88.24 178.846 88.2467 178.553 88.26C178.273 88.2867 177.939 88.32 177.553 88.36C177.326 88.3733 177.126 88.3 176.953 88.14C176.793 87.9933 176.713 87.8067 176.713 87.58C176.713 87.3533 176.786 87.1667 176.933 87.02C177.093 86.8733 177.279 86.8 177.493 86.8C177.599 86.8 177.713 86.8067 177.833 86.82C177.966 86.8333 178.099 86.8467 178.233 86.86H178.273C178.366 86.86 178.413 86.8067 178.413 86.7V75.1C178.413 74.9933 178.366 74.94 178.273 74.94C178.139 74.94 178.006 74.9533 177.873 74.98C177.753 75.0067 177.626 75.02 177.493 75.02C177.279 75.02 177.093 74.94 176.933 74.78C176.786 74.62 176.713 74.4333 176.713 74.22C176.713 73.9667 176.799 73.76 176.973 73.6C177.159 73.44 177.373 73.3733 177.613 73.4C177.879 73.44 178.159 73.48 178.453 73.52C178.746 73.5467 179.026 73.56 179.293 73.56L182.953 73.58C184.659 73.5933 185.993 73.98 186.953 74.74C187.913 75.4867 188.393 76.5533 188.393 77.94C188.393 79.14 188.059 80.08 187.393 80.76C186.739 81.44 185.886 81.9 184.833 82.14C184.686 82.1667 184.653 82.24 184.733 82.36L187.633 86.8C187.673 86.88 187.753 86.92 187.873 86.92C188.099 86.9067 188.333 86.8933 188.573 86.88C188.826 86.8533 189.059 86.8267 189.273 86.8ZM183.173 75.06H180.153C180.033 75.06 179.973 75.12 179.973 75.24V80.62C179.973 80.74 180.033 80.8 180.153 80.8H183.173C184.346 80.8 185.259 80.58 185.913 80.14C186.579 79.6867 186.913 78.9533 186.913 77.94C186.913 77.2067 186.739 76.6333 186.393 76.22C186.059 75.7933 185.606 75.4933 185.033 75.32C184.473 75.1467 183.853 75.06 183.173 75.06ZM206.401 86.8C206.627 86.7733 206.821 86.84 206.981 87C207.154 87.16 207.241 87.3533 207.241 87.58C207.241 87.8067 207.154 87.9933 206.981 88.14C206.821 88.3 206.627 88.3733 206.401 88.36C205.641 88.28 205.027 88.24 204.561 88.24C204.054 88.24 203.441 88.28 202.721 88.36C202.494 88.3733 202.301 88.3 202.141 88.14C201.981 87.9933 201.901 87.8067 201.901 87.58C201.901 87.3533 201.981 87.16 202.141 87C202.301 86.84 202.494 86.7733 202.721 86.8C202.867 86.8133 203.014 86.8267 203.161 86.84C203.321 86.8533 203.481 86.8667 203.641 86.88H203.681C203.814 86.88 203.847 86.8133 203.781 86.68L202.721 84.34C202.681 84.2467 202.614 84.2 202.521 84.2H195.481C195.401 84.2 195.334 84.2467 195.281 84.34L194.221 86.68C194.207 86.7067 194.201 86.74 194.201 86.78C194.201 86.8467 194.241 86.88 194.321 86.88C194.481 86.88 194.641 86.8733 194.801 86.86C194.974 86.8333 195.134 86.8133 195.281 86.8C195.507 86.7733 195.701 86.84 195.861 87C196.021 87.16 196.101 87.3533 196.101 87.58C196.101 87.8067 196.021 87.9933 195.861 88.14C195.701 88.3 195.507 88.3733 195.281 88.36C194.507 88.28 193.894 88.24 193.441 88.24C192.921 88.24 192.307 88.28 191.601 88.36C191.374 88.3733 191.174 88.3 191.001 88.14C190.841 87.9933 190.761 87.8067 190.761 87.58C190.761 87.3533 190.841 87.16 191.001 87C191.174 86.84 191.374 86.7733 191.601 86.8C191.841 86.84 192.087 86.86 192.341 86.86H192.381C192.447 86.86 192.507 86.82 192.561 86.74L198.401 73.76C198.521 73.5067 198.721 73.38 199.001 73.38C199.267 73.38 199.461 73.5067 199.581 73.76L205.441 86.74C205.494 86.8333 205.567 86.8733 205.661 86.86C205.914 86.86 206.161 86.84 206.401 86.8ZM199.121 76.3C199.107 76.22 199.067 76.18 199.001 76.18C198.961 76.18 198.921 76.22 198.881 76.3L196.081 82.54C196.067 82.5667 196.061 82.5933 196.061 82.62C196.061 82.7133 196.114 82.76 196.221 82.76H201.781C201.941 82.76 201.987 82.6867 201.921 82.54L199.121 76.3ZM220.855 86.8C221.082 86.7733 221.275 86.84 221.435 87C221.608 87.16 221.695 87.3533 221.695 87.58C221.695 87.8067 221.608 87.9933 221.435 88.14C221.275 88.3 221.082 88.3733 220.855 88.36C220.802 88.3467 220.582 88.32 220.195 88.28C219.822 88.24 219.462 88.22 219.115 88.22C218.595 88.22 218.188 88 217.895 87.56L214.535 82.44C214.495 82.36 214.422 82.32 214.315 82.32H211.735C211.615 82.32 211.555 82.38 211.555 82.5V86.72C211.555 86.84 211.615 86.9 211.735 86.9C211.922 86.8733 212.102 86.8533 212.275 86.84C212.462 86.8267 212.642 86.8133 212.815 86.8C213.042 86.7733 213.235 86.84 213.395 87C213.555 87.16 213.635 87.3533 213.635 87.58C213.635 87.8067 213.555 87.9933 213.395 88.14C213.235 88.3 213.042 88.3733 212.815 88.36C212.428 88.32 212.088 88.2867 211.795 88.26C211.515 88.2467 211.242 88.24 210.975 88.24C210.708 88.24 210.428 88.2467 210.135 88.26C209.855 88.2867 209.522 88.32 209.135 88.36C208.908 88.3733 208.708 88.3 208.535 88.14C208.375 87.9933 208.295 87.8067 208.295 87.58C208.295 87.3533 208.368 87.1667 208.515 87.02C208.675 86.8733 208.862 86.8 209.075 86.8C209.182 86.8 209.295 86.8067 209.415 86.82C209.548 86.8333 209.682 86.8467 209.815 86.86H209.855C209.948 86.86 209.995 86.8067 209.995 86.7V75.1C209.995 74.9933 209.948 74.94 209.855 74.94C209.722 74.94 209.588 74.9533 209.455 74.98C209.335 75.0067 209.208 75.02 209.075 75.02C208.862 75.02 208.675 74.94 208.515 74.78C208.368 74.62 208.295 74.4333 208.295 74.22C208.295 73.9667 208.382 73.76 208.555 73.6C208.742 73.44 208.955 73.3733 209.195 73.4C209.462 73.44 209.742 73.48 210.035 73.52C210.328 73.5467 210.608 73.56 210.875 73.56L214.535 73.58C216.242 73.5933 217.575 73.98 218.535 74.74C219.495 75.4867 219.975 76.5533 219.975 77.94C219.975 79.14 219.642 80.08 218.975 80.76C218.322 81.44 217.468 81.9 216.415 82.14C216.268 82.1667 216.235 82.24 216.315 82.36L219.215 86.8C219.255 86.88 219.335 86.92 219.455 86.92C219.682 86.9067 219.915 86.8933 220.155 86.88C220.408 86.8533 220.642 86.8267 220.855 86.8ZM214.755 75.06H211.735C211.615 75.06 211.555 75.12 211.555 75.24V80.62C211.555 80.74 211.615 80.8 211.735 80.8H214.755C215.928 80.8 216.842 80.58 217.495 80.14C218.162 79.6867 218.495 78.9533 218.495 77.94C218.495 77.2067 218.322 76.6333 217.975 76.22C217.642 75.7933 217.188 75.4933 216.615 75.32C216.055 75.1467 215.435 75.06 214.755 75.06ZM234.183 73.44C234.409 73.4133 234.603 73.48 234.763 73.64C234.923 73.8 235.003 73.9933 235.003 74.22C235.003 74.4333 234.929 74.6133 234.783 74.76C234.649 74.9067 234.469 74.98 234.243 74.98C234.136 74.98 234.016 74.9733 233.883 74.96C233.749 74.9467 233.616 74.9333 233.483 74.92H233.423C233.343 74.92 233.283 74.96 233.243 75.04L229.503 81.94C229.463 81.9933 229.443 82.0667 229.443 82.16V86.66C229.443 86.7667 229.489 86.82 229.583 86.82C229.756 86.82 229.929 86.8133 230.103 86.8C230.289 86.7733 230.469 86.7533 230.643 86.74C230.869 86.7133 231.063 86.78 231.223 86.94C231.383 87.1 231.463 87.2933 231.463 87.52C231.463 87.7467 231.383 87.9333 231.223 88.08C231.063 88.24 230.869 88.3133 230.643 88.3C230.256 88.26 229.896 88.2267 229.563 88.2C229.243 88.1867 228.929 88.18 228.623 88.18C228.103 88.18 227.483 88.22 226.763 88.3C226.536 88.3133 226.336 88.24 226.163 88.08C226.003 87.9333 225.923 87.7467 225.923 87.52C225.923 87.2933 226.003 87.1 226.163 86.94C226.336 86.78 226.536 86.7133 226.763 86.74C226.909 86.7533 227.069 86.7667 227.243 86.78C227.429 86.7933 227.609 86.8067 227.783 86.82H227.823C227.916 86.82 227.963 86.7667 227.963 86.66V82.3C227.963 82.2067 227.943 82.1333 227.903 82.08L224.143 75.04C224.103 74.96 224.043 74.92 223.963 74.92C223.816 74.92 223.676 74.9333 223.543 74.96C223.409 74.9733 223.269 74.98 223.123 74.98C222.909 74.98 222.729 74.9067 222.583 74.76C222.436 74.6133 222.363 74.4333 222.363 74.22C222.363 73.9933 222.443 73.8 222.603 73.64C222.763 73.48 222.956 73.4133 223.183 73.44C223.569 73.48 223.903 73.5133 224.183 73.54C224.463 73.5533 224.723 73.56 224.963 73.56C225.229 73.56 225.509 73.5533 225.803 73.54C226.096 73.5133 226.449 73.48 226.863 73.44C227.089 73.4133 227.283 73.48 227.443 73.64C227.616 73.8 227.703 73.9933 227.703 74.22C227.703 74.4333 227.629 74.6133 227.483 74.76C227.336 74.9067 227.149 74.98 226.923 74.98C226.763 74.98 226.596 74.9733 226.423 74.96C226.263 74.9333 226.096 74.9133 225.923 74.9H225.883C225.829 74.9 225.789 74.92 225.763 74.96C225.749 75 225.756 75.0467 225.783 75.1L228.583 80.52C228.609 80.5867 228.649 80.62 228.703 80.62C228.756 80.62 228.796 80.5867 228.823 80.52L231.623 75.1C231.636 75.0733 231.643 75.04 231.643 75C231.643 74.9333 231.603 74.9 231.523 74.9C231.336 74.9 231.149 74.9133 230.963 74.94C230.789 74.9667 230.616 74.98 230.443 74.98C230.229 74.98 230.043 74.9067 229.883 74.76C229.736 74.6133 229.663 74.4333 229.663 74.22C229.663 73.9933 229.743 73.8 229.903 73.64C230.076 73.48 230.276 73.4133 230.503 73.44C230.889 73.48 231.216 73.5133 231.483 73.54C231.763 73.5533 232.029 73.56 232.283 73.56C232.549 73.56 232.829 73.5533 233.123 73.54C233.416 73.5133 233.769 73.48 234.183 73.44Z" fill="#242424"/>
</svg>
