<?xml version="1.0" standalone="no"?>
<!DOCTYPE svg PUBLIC "-//W3C//DTD SVG 20010904//EN"
 "http://www.w3.org/TR/2001/REC-SVG-20010904/DTD/svg10.dtd">
<svg version="1.0" xmlns="http://www.w3.org/2000/svg"
 width="700.000000pt" height="700.000000pt" viewBox="0 0 700.000000 700.000000"
 preserveAspectRatio="xMidYMid meet">
<metadata>
Created by potrace 1.14, written by Peter Selinger 2001-2017
</metadata>
<g transform="translate(0.000000,700.000000) scale(0.100000,-0.100000)"
fill="#000000" stroke="none">
<path d="M962 6089 c-72 -36 -82 -122 -20 -174 27 -23 39 -26 97 -25 36 1 72
1 79 1 10 -1 12 -171 10 -833 l-3 -833 -80 0 c-95 0 -125 -15 -142 -70 -17
-54 1 -101 49 -129 25 -15 41 -17 106 -10 98 9 301 10 420 0 l92 -8 35 35 c29
29 35 42 35 77 0 35 -6 48 -35 77 l-35 35 -87 -7 c-49 -4 -91 -9 -95 -11 -3
-2 -13 -1 -22 2 -14 6 -16 82 -16 786 0 574 3 779 11 776 6 -2 142 -331 302
-732 265 -663 293 -730 324 -753 34 -26 92 -36 128 -23 39 15 74 63 115 158
24 53 50 115 60 137 10 22 32 74 50 115 18 41 38 89 46 105 7 17 79 183 159
370 80 187 150 349 156 360 5 11 31 72 58 135 27 63 54 116 60 118 7 2 11 -23
11 -75 0 -43 0 -390 0 -772 0 -723 0 -718 -40 -706 -8 2 -52 7 -98 10 l-83 6
-34 -34 c-29 -29 -35 -42 -35 -77 0 -35 6 -48 35 -77 l35 -35 93 8 c119 10
287 10 408 0 l97 -8 36 33 c56 52 52 126 -8 167 -28 19 -44 22 -107 20 l-74
-3 0 835 0 835 76 -3 c74 -3 78 -2 113 29 32 27 37 38 35 68 -6 87 -66 128
-162 110 -24 -4 -93 -10 -153 -14 -159 -8 -181 -15 -247 -74 -38 -34 -46 -52
-172 -351 -59 -140 -113 -269 -120 -286 -8 -17 -87 -203 -175 -415 -89 -211
-165 -388 -170 -393 -12 -12 -24 14 -190 439 -84 215 -199 507 -255 650 -56
143 -105 267 -108 275 -15 43 -70 100 -119 123 -43 21 -73 27 -163 31 -99 5
-155 10 -222 21 -12 2 -39 -6 -61 -16z"/>
<path d="M4195 6100 c-132 -22 -123 -215 11 -222 10 0 42 2 70 6 38 5 53 4 56
-6 2 -7 4 -382 4 -833 l-1 -820 -88 0 c-87 0 -89 0 -118 -33 -40 -45 -40 -99
0 -144 l29 -33 94 4 c104 4 317 3 451 -1 85 -3 88 -2 112 26 14 16 25 34 26
40 0 6 2 19 4 30 5 27 -9 57 -41 89 -27 27 -30 28 -103 22 -42 -3 -88 -8 -103
-11 -16 -3 -29 0 -34 8 -10 16 -12 605 -2 621 5 8 81 12 260 13 276 1 323 5
443 35 237 59 413 220 451 414 2 11 6 31 9 45 11 51 5 210 -9 274 -59 251
-287 420 -607 451 -36 3 -214 6 -395 7 -190 0 -363 5 -409 12 -44 6 -94 9
-110 6z m1030 -254 c128 -36 217 -101 263 -193 50 -97 48 -279 -3 -380 -38
-77 -132 -145 -235 -173 -25 -7 -54 -15 -65 -18 -39 -10 -618 -14 -624 -4 -5
8 -7 753 -2 785 0 5 137 7 304 5 245 -4 313 -8 362 -22z"/>
<path d="M1357 2587 c-109 -62 -56 -217 71 -207 21 1 53 3 72 4 l35 1 0 -830
0 -830 -88 0 c-87 0 -89 0 -118 -33 -43 -49 -41 -103 7 -149 l36 -33 91 6
c123 10 313 9 413 0 65 -6 88 -5 111 7 74 39 75 155 1 193 -26 14 -125 13
-200 -1 -9 -2 -21 2 -25 8 -10 15 -11 604 -1 620 5 8 83 12 265 13 262 1 296
4 418 28 58 12 151 48 210 81 135 75 236 212 265 360 17 81 14 218 -4 299 -58
249 -285 419 -603 450 -34 4 -216 7 -405 7 -189 1 -370 5 -403 10 -33 5 -72
11 -86 13 -14 2 -42 -5 -62 -17z m1028 -231 c156 -36 251 -100 303 -203 48
-94 48 -290 0 -375 -49 -87 -134 -150 -238 -178 -25 -7 -54 -15 -65 -18 -32
-9 -625 -14 -626 -5 -4 24 -5 770 -1 781 4 11 62 13 301 9 163 -2 310 -7 326
-11z"/>
<path d="M4244 2600 c-56 -21 -80 -100 -49 -159 20 -40 62 -54 145 -49 59 4
70 3 71 -11 4 -44 5 -1618 1 -1628 -3 -9 -23 -11 -71 -7 -80 7 -122 -9 -146
-56 -31 -60 -14 -127 42 -161 28 -17 43 -20 86 -15 29 4 77 9 107 12 30 3 278
7 550 8 545 2 528 1 583 66 35 42 42 77 53 291 l7 136 -36 34 c-54 53 -119 51
-172 -5 -17 -17 -20 -35 -21 -105 0 -46 3 -105 6 -131 3 -26 4 -52 2 -58 -3
-9 -105 -12 -382 -12 -352 0 -379 1 -383 18 -3 9 -4 379 -3 822 l1 805 100 -3
c123 -3 138 1 164 37 26 36 31 67 18 106 -22 61 -53 76 -148 67 -91 -8 -351
-9 -439 0 -36 3 -75 2 -86 -2z"/>
</g>
</svg>
